<svg width="48" height="140" viewBox="0 0 48 140" fill="none" xmlns="http://www.w3.org/2000/svg">
<circle cx="24" cy="70" r="24" fill="#4A508E" fill-opacity="0.4"/>
<path d="M32.4693 63.0302C32.3996 62.9605 32.3443 62.8778 32.3066 62.7868C32.2689 62.6957 32.2495 62.5981 32.2495 62.4996C32.2495 62.401 32.2689 62.3035 32.3066 62.2124C32.3443 62.1214 32.3996 62.0386 32.4693 61.969C32.539 61.8993 32.6217 61.844 32.7127 61.8063C32.8038 61.7686 32.9014 61.7492 32.9999 61.7492C33.0984 61.7492 33.196 61.7686 33.2871 61.8063C33.3781 61.844 33.4608 61.8993 33.5305 61.969L41.0305 69.469C41.1003 69.5386 41.1556 69.6213 41.1933 69.7124C41.2311 69.8034 41.2505 69.901 41.2505 69.9996C41.2505 70.0981 41.2311 70.1957 41.1933 70.2868C41.1556 70.3778 41.1003 70.4606 41.0305 70.5302L33.5305 78.0302C33.3898 78.1709 33.1989 78.25 32.9999 78.25C32.8009 78.25 32.61 78.1709 32.4693 78.0302C32.3285 77.8895 32.2495 77.6986 32.2495 77.4996C32.2495 77.3006 32.3285 77.1097 32.4693 76.969L39.4396 69.9996L32.4693 63.0302Z" fill="#F8F9FB"/>
</svg>
